<svg xmlns="http://www.w3.org/2000/svg" width="1200" height="760" viewBox="0 0 1200 760"><rect width="1200" height="760" fill="#f8fafc"/><text x="36" y="46" font-family="Arial, sans-serif" font-size="24" font-weight="700" fill="#0f172a">TRACE operational interface</text><text x="36" y="78" font-family="Arial, sans-serif" font-size="15" fill="#475569">Verified desktop and narrow responsive views are generated by the Chromium browser-proof workflow.</text><rect x="36" y="110" width="790" height="570" rx="18" fill="#ffffff" stroke="#cbd5e1"/><rect x="54" y="132" width="168" height="526" rx="12" fill="#0f172a"/><text x="76" y="174" font-family="Arial, sans-serif" font-size="21" font-weight="700" fill="#ffffff">TRACE</text><text x="76" y="210" font-family="Arial, sans-serif" font-size="13" fill="#cbd5e1">Overview</text><text x="76" y="244" font-family="Arial, sans-serif" font-size="13" fill="#cbd5e1">Cases</text><text x="76" y="278" font-family="Arial, sans-serif" font-size="13" fill="#cbd5e1">Evidence</text><text x="76" y="312" font-family="Arial, sans-serif" font-size="13" fill="#cbd5e1">Analysis</text><text x="76" y="346" font-family="Arial, sans-serif" font-size="13" fill="#cbd5e1">Timeline</text><text x="76" y="380" font-family="Arial, sans-serif" font-size="13" fill="#cbd5e1">History</text><text x="248" y="166" font-family="Arial, sans-serif" font-size="24" font-weight="700" fill="#0f172a">Operational dashboard</text><text x="248" y="194" font-family="Arial, sans-serif" font-size="14" fill="#64748b">Local-first · read-only · evidence-led</text><g fill="#ffffff" stroke="#cbd5e1"><rect x="248" y="224" width="170" height="92" rx="12"/><rect x="434" y="224" width="170" height="92" rx="12"/><rect x="620" y="224" width="170" height="92" rx="12"/><rect x="248" y="336" width="542" height="290" rx="12"/></g><text x="268" y="254" font-family="Arial, sans-serif" font-size="12" fill="#64748b">ACTIVE CASES</text><text x="268" y="294" font-family="Arial, sans-serif" font-size="30" font-weight="700" fill="#0f172a">3</text><text x="454" y="254" font-family="Arial, sans-serif" font-size="12" fill="#64748b">WAITING EVIDENCE</text><text x="454" y="294" font-family="Arial, sans-serif" font-size="30" font-weight="700" fill="#0f172a">1</text><text x="640" y="254" font-family="Arial, sans-serif" font-size="12" fill="#64748b">READY TO REVIEW</text><text x="640" y="294" font-family="Arial, sans-serif" font-size="30" font-weight="700" fill="#0f172a">2</text><text x="270" y="370" font-family="Arial, sans-serif" font-size="17" font-weight="700" fill="#0f172a">Investigation register</text><line x1="270" y1="396" x2="766" y2="396" stroke="#e2e8f0"/><text x="270" y="426" font-family="Arial, sans-serif" font-size="13" fill="#334155">Conditional Access investigation</text><text x="660" y="426" font-family="Arial, sans-serif" font-size="12" fill="#166534">Under review</text><line x1="270" y1="448" x2="766" y2="448" stroke="#e2e8f0"/><text x="270" y="478" font-family="Arial, sans-serif" font-size="13" fill="#334155">Guest / B2B lifecycle</text><text x="660" y="478" font-family="Arial, sans-serif" font-size="12" fill="#92400e">Needs evidence</text><line x1="270" y1="500" x2="766" y2="500" stroke="#e2e8f0"/><text x="270" y="530" font-family="Arial, sans-serif" font-size="13" fill="#334155">Resource assignment</text><text x="660" y="530" font-family="Arial, sans-serif" font-size="12" fill="#166534">Ready</text><rect x="860" y="110" width="304" height="570" rx="28" fill="#ffffff" stroke="#cbd5e1"/><rect x="880" y="132" width="264" height="62" rx="12" fill="#0f172a"/><text x="900" y="170" font-family="Arial, sans-serif" font-size="20" font-weight="700" fill="#ffffff">TRACE</text><text x="884" y="228" font-family="Arial, sans-serif" font-size="21" font-weight="700" fill="#0f172a">Dashboard</text><g fill="#ffffff" stroke="#cbd5e1"><rect x="884" y="250" width="256" height="74" rx="10"/><rect x="884" y="338" width="256" height="74" rx="10"/><rect x="884" y="426" width="256" height="194" rx="10"/></g><text x="902" y="278" font-family="Arial, sans-serif" font-size="11" fill="#64748b">ACTIVE CASES</text><text x="902" y="308" font-family="Arial, sans-serif" font-size="24" font-weight="700" fill="#0f172a">3</text><text x="902" y="366" font-family="Arial, sans-serif" font-size="11" fill="#64748b">READY TO REVIEW</text><text x="902" y="396" font-family="Arial, sans-serif" font-size="24" font-weight="700" fill="#0f172a">2</text><text x="902" y="456" font-family="Arial, sans-serif" font-size="15" font-weight="700" fill="#0f172a">Cases</text><line x1="902" y1="476" x2="1122" y2="476" stroke="#e2e8f0"/><text x="902" y="505" font-family="Arial, sans-serif" font-size="12" fill="#334155">Conditional Access</text><text x="902" y="541" font-family="Arial, sans-serif" font-size="12" fill="#334155">Guest / B2B</text><text x="902" y="577" font-family="Arial, sans-serif" font-size="12" fill="#334155">Resource assignment</text><text x="36" y="724" font-family="Arial, sans-serif" font-size="13" fill="#64748b">The repository’s automated browser proof retains the actual full-resolution screenshots and diagnostics for every verified GUI run.</text></svg>